<svg xmlns="http://www.w3.org/2000/svg" viewBox="0 0 100 100">
  <!-- Background Circle (Purple #6B21A8) -->
  <circle cx="50" cy="50" r="50" fill="#6B21A8" />
  
  <!-- Paw Print (White) -->
  <g fill="#FFFFFF" transform="translate(14, 14) scale(3)">
    <path d="M10.8 1.9c.7 0 1.3.4 1.4 1 .2.9-.3 2.1-1.3 2.6-.9.4-2.1.1-2.4-.7-.2-.9.3-2.1 1.3-2.6.3-.2.7-.3 1-.3zM4.6 3.3C5.5 3 6.6 3.5 7 4.5c.3.9-.2 2.1-1.2 2.6-.9.5-2.1 0-2.4-1-.3-.9.2-2.1 1.2-2.8zm12.3 0c1 .4 1.5 1.6 1.2 2.6-.3 1-1.5 1.5-2.4 1-.9-.5-1.5-1.7-1.2-2.6.4-.9 1.5-1.5 2.4-1zM4.1 9.6c.9-.5 2 .1 2.4 1 .3 1-.1 2.2-1.1 2.8-.9.5-2-.1-2.4-1-.3-1 .1-2.2 1.1-2.8zm13.2 0c1 .6 1.4 1.8 1.1 2.8-.4.9-1.5 1.5-2.4 1-1-.6-1.4-1.8-1.1-2.8.4-.9 1.5-1.5 2.4-1zM10.7 8c2.9 0 5.4 1.9 6.1 4.7.4 1.5-.7 2.8-2 2.4-.4-.1-.8-.2-1.2-.2-1.3 0-2.4 1-2.9 2.1-.5 1.1-1.8 1.5-2.7.9-1.4-.9-1.7-2.9-.8-4.3C8.1 10.9 9.3 8 10.7 8z"/>
  </g>
</svg>
